<?xml version="1.0" encoding="UTF-8"?>
<svg width="1319px" height="1289px" viewBox="0 0 1319 1289" version="1.1" xmlns="http://www.w3.org/2000/svg" xmlns:xlink="http://www.w3.org/1999/xlink">
    <title>Artboard Copy 3</title>
    <defs>
        <polygon id="path-1" points="574.640978 551.368692 729.177563 551.368692 739.909271 562.1004 739.909271 716.636985 729.177563 727.368692 574.640978 727.368692 563.909271 716.636985 563.909271 562.1004"></polygon>
        <filter x="-14.2%" y="-13.1%" width="128.4%" height="128.4%" filterUnits="objectBoundingBox" id="filter-2">
            <feMorphology radius="1.5" operator="dilate" in="SourceAlpha" result="shadowSpreadOuter1"></feMorphology>
            <feOffset dx="0" dy="2" in="shadowSpreadOuter1" result="shadowOffsetOuter1"></feOffset>
            <feGaussianBlur stdDeviation="6.5" in="shadowOffsetOuter1" result="shadowBlurOuter1"></feGaussianBlur>
            <feColorMatrix values="0 0 0 0 0   0 0 0 0 0   0 0 0 0 0  0 0 0 0.5 0" type="matrix" in="shadowBlurOuter1"></feColorMatrix>
        </filter>
    </defs>
    <g id="Artboard-Copy-3" stroke="none" stroke-width="1" fill="none" fill-rule="evenodd">
        <g id="Group-4">
            <path d="M622.07415,620.726386 C625.940143,620.726386 629.07415,623.860393 629.07415,627.726386 C629.07415,631.25278 626.466559,634.170139 623.074375,634.655465 L623.07443,715.942689 C624.411179,716.245285 625.409271,717.44043 625.409271,718.868692 L625.409271,735.868692 C625.409271,737.296954 624.411179,738.492099 623.07443,738.794695 L623.07415,762.68416 L622.781256,762.977053 L578.114,807.643 L578.114,893.305 L636.293,835.127 L634.015139,832.84947 L633.868692,832.703024 L633.868558,738.820093 C632.469784,738.565491 631.409271,737.34094 631.409271,735.868692 L631.409271,718.868692 C631.409271,717.396445 632.469784,716.171894 633.868558,715.917292 L633.868692,708.319596 L634.868692,708.319596 L634.868895,715.903681 C636.307566,716.124875 637.409271,717.368125 637.409271,718.868692 L637.409271,735.868692 C637.409271,737.369259 636.307566,738.612509 634.868895,738.833704 L634.868,832.288 L636.999,834.42 L645.868,825.552 L645.868558,738.820093 C644.469784,738.565491 643.409271,737.34094 643.409271,735.868692 L643.409271,718.868692 C643.409271,717.396445 644.469784,716.171894 645.868558,715.917292 L645.868692,708.319596 L646.868692,708.319596 L646.868895,715.903681 C648.307566,716.124875 649.409271,717.368125 649.409271,718.868692 L649.409271,735.868692 C649.409271,737.369259 648.307566,738.612509 646.868895,738.833704 L646.868692,825.966227 L637.707,835.128 L657.368,854.789 L657.368184,738.683125 C656.224504,738.259912 655.409271,737.159506 655.409271,735.868692 L655.409271,718.868692 C655.409271,717.577878 656.224504,716.477472 657.368184,716.05426 L657.368692,708.319596 L659.368692,708.319596 L659.368798,716.02542 C660.555083,716.425612 661.409271,717.547399 661.409271,718.868692 L661.409271,735.868692 C661.409271,737.189986 660.555083,738.311773 659.368798,738.711965 L659.368,856.789 L664.367,861.788 L669.368,856.787 L669.368184,738.683125 C668.224504,738.259912 667.409271,737.159506 667.409271,735.868692 L667.409271,718.868692 C667.409271,717.577878 668.224504,716.477472 669.368184,716.05426 L669.368692,708.319596 L671.368692,708.319596 L671.368798,716.02542 C672.555083,716.425612 673.409271,717.547399 673.409271,718.868692 L673.409271,735.868692 C673.409271,737.189986 672.555083,738.311773 671.368798,738.711965 L671.367,854.788 L680.868,845.287 L680.867375,738.442655 C679.993828,737.918243 679.409271,736.961733 679.409271,735.868692 L679.409271,718.868692 C679.409271,717.775652 679.993828,716.819142 680.867375,716.29473 L680.868692,708.319596 L683.868692,708.319596 L683.868644,716.246959 C684.787703,716.759644 685.409271,717.741581 685.409271,718.868692 L685.409271,735.868692 C685.409271,736.995804 684.787703,737.977741 683.868644,738.490426 L683.868,842.287 L693.868,832.289 L693.868558,738.820093 C692.469784,738.565491 691.409271,737.34094 691.409271,735.868692 L691.409271,718.868692 C691.409271,717.396445 692.469784,716.171894 693.868558,715.917292 L693.868692,708.319596 L694.868692,708.319596 L694.868895,715.903681 C696.307566,716.124875 697.409271,717.368125 697.409271,718.868692 L697.409271,735.868692 C697.409271,737.369259 696.307566,738.612509 694.868895,738.833704 L694.868692,832.703024 L683.868,843.703 L683.868,881.289 L745.277,942.698 L766.88395,942.698322 C767.13282,940.448502 769.040284,938.698646 771.35645,938.698646 C773.841731,938.698646 775.85645,940.713364 775.85645,943.198646 C775.85645,945.683927 773.841731,947.698646 771.35645,947.698646 C769.040284,947.698646 767.13282,945.948789 766.88395,943.69897 L744.864314,943.698646 L744.717868,943.552199 L683.868,882.702 L683.868,947.446 L763.314087,1026.892 C766.055925,1024.83616 769.962964,1025.05507 772.456646,1027.54876 C775.190316,1030.28243 775.190316,1034.71458 772.456646,1037.44825 C769.722976,1040.18192 765.290821,1040.18192 762.557151,1037.44825 C760.063427,1034.95453 759.844542,1031.0474 761.900496,1028.30555 L683.868,950.274 L683.868704,1200.52665 C688.402677,1201.24583 691.868692,1205.17259 691.868692,1209.90889 C691.868692,1215.1556 687.615397,1219.40889 682.368692,1219.40889 C677.121987,1219.40889 672.868692,1215.1556 672.868692,1209.90889 C672.868692,1205.17272 676.334526,1201.24603 680.868324,1200.5267 L680.868,947.274 L669.368692,935.774512 L669.368,868.202 L664.368,863.202 L659.368,868.202 L659.368692,1010.41495 C662.760991,1010.90019 665.368692,1013.81759 665.368692,1017.34406 C665.368692,1021.21006 662.234686,1024.34406 658.368692,1024.34406 C654.502699,1024.34406 651.368692,1021.21006 651.368692,1017.34406 C651.368692,1013.81767 653.976283,1010.90031 657.368467,1010.41498 L657.368,870.202 L601.868,925.703 L601.869016,977.423666 C604.118836,977.672536 605.868692,979.580001 605.868692,981.896166 C605.868692,984.381448 603.853974,986.396166 601.368692,986.396166 C598.883411,986.396166 596.868692,984.381448 596.868692,981.896166 C596.868692,979.580001 598.618549,977.672536 600.868368,977.423666 L600.868692,925.28881 L601.015139,925.142364 L657.368,868.788 L657.368,856.202 L637,835.834 L578.114,894.72 L578.114776,1088.33907 L577.821883,1088.63196 L566.661,1099.791 L603.175881,1136.30488 C605.917719,1134.24904 609.824758,1134.46796 612.31844,1136.96164 C615.05211,1139.69531 615.05211,1144.12747 612.31844,1146.86114 C609.58477,1149.59481 605.152615,1149.59481 602.418945,1146.86114 C599.925527,1144.36772 599.70639,1140.46124 601.761533,1137.71945 L565.247,1101.205 L515.367,1151.086 L515.367374,1275.07092 C518.759558,1275.55625 521.367149,1278.47361 521.367149,1282 C521.367149,1285.86599 518.233142,1289 514.367149,1289 C510.501155,1289 507.367149,1285.86599 507.367149,1282 C507.367149,1278.47353 509.97485,1275.55612 513.367149,1275.07089 L513.367149,1150.25827 L513.660042,1149.96538 L563.833,1099.791 L552.235857,1088.19277 L552.235,1024.883 L396.407043,1180.71368 C398.462187,1183.45548 398.24305,1187.36195 395.749632,1189.85537 C393.015962,1192.58904 388.583807,1192.58904 385.850137,1189.85537 C383.116467,1187.1217 383.116467,1182.68954 385.850137,1179.95587 C388.343555,1177.46246 392.25003,1177.24332 394.991825,1179.29846 L552.235,1022.055 L552.235,920.599 L541.367,931.467 L541.367165,1010.13351 L541.220718,1010.27995 L456.05639,1095.44428 L455.909943,1095.59073 L327.4725,1095.59105 C327.22363,1097.84087 325.316166,1099.59073 323,1099.59073 C320.514719,1099.59073 318.5,1097.57601 318.5,1095.09073 C318.5,1092.60545 320.514719,1090.59073 323,1090.59073 C325.316034,1090.59073 327.223414,1092.34039 327.472457,1094.59002 L455.496,1094.59 L540.367,1009.718 L540.367,932.467 L500.644124,972.190796 L419.841192,972.19112 C419.592323,974.440939 417.684858,976.190796 415.368692,976.190796 C412.883411,976.190796 410.868692,974.176077 410.868692,971.690796 C410.868692,969.205515 412.883411,967.190796 415.368692,967.190796 C417.684726,967.190796 419.592106,968.940454 419.84115,971.190089 L500.23,971.19 L540.367,931.052 L540.367165,807.022213 L540.513611,806.875767 L585.326,762.062 L585.324988,738.666758 C584.204031,738.232073 583.409271,737.143196 583.409271,735.868692 L583.409271,718.868692 C583.409271,717.59381 584.204505,716.504664 585.325989,716.070239 L585.326215,686.063229 C583.076395,685.81436 581.326539,683.906895 581.326539,681.590729 C581.326539,679.105448 583.341257,677.090729 585.826539,677.090729 C588.31182,677.090729 590.326539,679.105448 590.326539,681.590729 C590.326539,683.906895 588.576682,685.81436 586.326863,686.063229 L586.326296,715.869818 C586.353863,715.869069 586.381523,715.868692 586.409271,715.868692 C588.066125,715.868692 589.409271,717.211838 589.409271,718.868692 L589.409271,735.868692 C589.409271,737.525547 588.066125,738.868692 586.409271,738.868692 L586.326,738.866 L586.326539,762.477053 L586.180092,762.6235 L541.367,807.435 L541.367,930.052 L552.235,919.184 L552.235857,806.815107 L597.195,761.855 L597.194183,738.612424 C596.142705,738.146077 595.409271,737.093036 595.409271,735.868692 L595.409271,718.868692 C595.409271,717.644349 596.142705,716.591308 597.194183,716.124961 L597.195223,634.655496 C593.802933,634.170263 591.195231,631.252855 591.195231,627.726386 C591.195231,623.860393 594.329238,620.726386 598.195231,620.726386 C600.700365,620.726386 602.898141,622.042337 604.135001,624.020676 C605.371239,622.042337 607.569016,620.726386 610.07415,620.726386 C612.621015,620.726386 614.850197,622.086545 616.074928,624.120092 C617.298102,622.086545 619.527285,620.726386 622.07415,620.726386 Z M514.367149,1277 C511.605725,1277 509.367149,1279.23858 509.367149,1282 C509.367149,1284.76142 511.605725,1287 514.367149,1287 C517.128572,1287 519.367149,1284.76142 519.367149,1282 C519.367149,1279.23858 517.128572,1277 514.367149,1277 Z M973.198646,517.14355 C975.683927,517.14355 977.698646,519.158269 977.698646,521.64355 C977.698646,523.959716 975.948789,525.86718 973.69897,526.11605 L973.698646,548.135686 L973.552199,548.282132 L912.703,609.131 L977.445,609.131 L1056.892,529.685913 C1054.83616,526.944075 1055.05507,523.037036 1057.54876,520.543354 C1060.28243,517.809684 1064.71458,517.809684 1067.44825,520.543354 C1070.18192,523.277024 1070.18192,527.709179 1067.44825,530.442849 C1064.95453,532.936573 1061.0474,533.155458 1058.30555,531.099504 L980.274,609.131 L1230.52665,609.131296 C1231.24583,604.597323 1235.17259,601.131308 1239.90889,601.131308 C1245.1556,601.131308 1249.40889,605.384603 1249.40889,610.631308 C1249.40889,615.878013 1245.1556,620.131308 1239.90889,620.131308 C1235.17272,620.131308 1231.24603,616.665474 1230.5267,612.131676 L977.274,612.131 L965.774512,623.631308 L898.203,623.631 L893.203,628.631 L898.203,633.631 L1040.41495,633.631308 C1040.90019,630.239009 1043.81759,627.631308 1047.34406,627.631308 C1051.21006,627.631308 1054.34406,630.765314 1054.34406,634.631308 C1054.34406,638.497301 1051.21006,641.631308 1047.34406,641.631308 C1043.81767,641.631308 1040.90031,639.023717 1040.41498,635.631533 L900.203,635.631 L955.703,691.131 L1007.42367,691.130984 C1007.67254,688.881164 1009.58,687.131308 1011.89617,687.131308 C1014.38145,687.131308 1016.39617,689.146026 1016.39617,691.631308 C1016.39617,694.116589 1014.38145,696.131308 1011.89617,696.131308 C1009.58,696.131308 1007.67254,694.381451 1007.42367,692.131632 L955.28881,692.131308 L955.142364,691.984861 L898.789,635.631 L886.203,635.631 L865.834,655.999 L924.719,714.884 L1118.33907,714.885224 L1118.63196,715.178117 L1129.791,726.338 L1166.30488,689.824119 C1164.24904,687.082281 1164.46796,683.175242 1166.96164,680.68156 C1169.69531,677.94789 1174.12747,677.94789 1176.86114,680.68156 C1179.59481,683.41523 1179.59481,687.847385 1176.86114,690.581055 C1174.36772,693.074473 1170.46124,693.29361 1167.71945,691.238467 L1131.205,727.752 L1181.086,777.632 L1305.07092,777.632626 C1305.55625,774.240442 1308.47361,771.632851 1312,771.632851 C1315.86599,771.632851 1319,774.766858 1319,778.632851 C1319,782.498845 1315.86599,785.632851 1312,785.632851 C1308.47353,785.632851 1305.55612,783.02515 1305.07089,779.63286 L1180.25827,779.632851 L1129.791,729.165 L1118.19277,740.764143 L1054.883,740.764 L1210.71368,896.592957 C1213.45548,894.537813 1217.36195,894.75695 1219.85537,897.250368 C1222.58904,899.984038 1222.58904,904.416193 1219.85537,907.149863 C1217.1217,909.883533 1212.68954,909.883533 1209.95587,907.149863 C1207.46246,904.656445 1207.24332,900.74997 1209.29846,898.008175 L1052.054,740.764 L950.599,740.764 L961.467,751.632 L1040.13351,751.632835 L1040.27995,751.779282 L1125.44428,836.94361 L1125.59073,837.090057 L1125.59105,965.5275 C1127.84087,965.77637 1129.59073,967.683834 1129.59073,970 C1129.59073,972.485281 1127.57601,974.5 1125.09073,974.5 C1122.60545,974.5 1120.59073,972.485281 1120.59073,970 C1120.59073,967.683966 1122.34039,965.776586 1124.59002,965.527543 L1124.59,837.503 L1039.718,752.632 L962.467,752.632 L1002.1908,792.355876 L1002.19112,873.158808 C1004.44094,873.407677 1006.1908,875.315142 1006.1908,877.631308 C1006.1908,880.116589 1004.17608,882.131308 1001.6908,882.131308 C999.205515,882.131308 997.190796,880.116589 997.190796,877.631308 C997.190796,875.315274 998.940454,873.407894 1001.19009,873.15885 L1001.19,792.769 L961.052,752.632 L837.022213,752.632835 L836.875767,752.486389 L792.062,707.673 L751.611535,707.673259 C751.126246,708.676635 750.098577,709.368692 748.909271,709.368692 L731.909271,709.368692 C730.719964,709.368692 729.692296,708.676635 729.207007,707.673259 L719.368,707.673 L719.367808,716.025086 C720.554608,716.424987 721.409271,717.547031 721.409271,718.868692 L721.409271,735.868692 C721.409271,737.190353 720.554608,738.312397 719.367808,738.712299 L719.368,772.957 L856.634617,910.22311 L856.634625,1018.43275 C860.026915,1018.91799 862.634617,1021.83539 862.634617,1025.36186 C862.634617,1029.22786 859.50061,1032.36186 855.634617,1032.36186 C851.768623,1032.36186 848.634617,1029.22786 848.634617,1025.36186 C848.634617,1021.83547 851.242207,1018.91811 854.634392,1018.43278 L854.634,911.051 L717.368692,773.785613 L717.367176,738.682751 C716.224025,738.259265 715.409271,737.159127 715.409271,735.868692 L715.409271,718.868692 C715.409271,717.578258 716.224025,716.478119 717.367176,716.054633 L717.368,707.673 L716.063229,707.673785 C715.81436,709.923605 713.906895,711.673461 711.590729,711.673461 C710.042928,711.673461 708.677642,710.892025 707.86787,709.702154 L707.867659,716.24641 C708.787259,716.758942 709.409271,717.741178 709.409271,718.868692 L709.409271,735.868692 C709.409271,736.996207 708.787259,737.978442 707.867659,738.490975 L707.868,831.874 L792.35202,916.357924 L792.79136,916.797264 L792.791372,1129.60021 C797.325344,1130.31939 800.79136,1134.24616 800.79136,1138.98246 C800.79136,1144.22917 796.538065,1148.48246 791.29136,1148.48246 C786.044655,1148.48246 781.79136,1144.22917 781.79136,1138.98246 C781.79136,1134.24616 785.257375,1130.31939 789.791348,1129.60021 L789.791,918.04 L705.308032,833.556577 L704.868692,833.117237 L704.867375,738.442655 C703.993828,737.918243 703.409271,736.961733 703.409271,735.868692 L703.409271,718.868692 C703.409271,717.775652 703.993828,716.819142 704.867375,716.29473 L704.868692,708.319596 L707.238031,708.319737 C707.141914,707.953769 707.090729,707.569592 707.090729,707.173461 C707.090729,704.68818 709.105448,702.673461 711.590729,702.673461 C713.906895,702.673461 715.81436,704.423318 716.063229,706.673137 L717.368,706.673 L717.368692,705.590729 L719.368692,705.590729 L719.368,706.673 L728.924608,706.673934 C728.914466,706.573566 728.909271,706.471736 728.909271,706.368692 C728.909271,704.711838 730.252416,703.368692 731.909271,703.368692 L748.909271,703.368692 C750.566125,703.368692 751.909271,704.711838 751.909271,706.368692 C751.909271,706.471736 751.904076,706.573566 751.893933,706.673934 L792.477053,706.673461 L792.6235,706.819908 L837.435,751.632 L960.052,751.632 L949.184,740.764 L836.815107,740.764143 L791.855,695.804 L751.543654,695.805154 C751.034585,696.736779 750.045724,697.368692 748.909271,697.368692 L731.909271,697.368692 C730.772818,697.368692 729.783956,696.736779 729.274887,695.805154 L664.655496,695.804777 C664.170263,699.197067 661.252855,701.804769 657.726386,701.804769 C653.860393,701.804769 650.726386,698.670762 650.726386,694.804769 C650.726386,692.299635 652.042337,690.101859 654.020676,688.864999 C652.042337,687.628761 650.726386,685.430984 650.726386,682.92585 C650.726386,680.378985 652.086545,678.149803 654.120092,676.925072 C652.086545,675.701898 650.726386,673.472715 650.726386,670.92585 C650.726386,667.059857 653.860393,663.92585 657.726386,663.92585 C661.25278,663.92585 664.170139,666.533441 664.655465,669.925625 L728.941839,669.925101 C729.156229,668.47859 730.403134,667.368692 731.909271,667.368692 L748.909271,667.368692 C750.415407,667.368692 751.662313,668.47859 751.876702,669.925101 L792.68416,669.92585 L837.643,714.885 L923.304,714.884 L865.127,656.707 L862.84947,658.984861 L862.703024,659.131308 L751.811312,659.131953 C751.47369,660.41914 750.30237,661.368692 748.909271,661.368692 L731.909271,661.368692 C730.252416,661.368692 728.909271,660.025547 728.909271,658.368692 C728.909271,656.711838 730.252416,655.368692 731.909271,655.368692 L748.909271,655.368692 C750.486207,655.368692 751.778968,656.58539 751.900011,658.131243 L862.288,658.131 L864.42,656 L855.552,647.131 L751.811312,647.131953 C751.47369,648.41914 750.30237,649.368692 748.909271,649.368692 L731.909271,649.368692 C730.252416,649.368692 728.909271,648.025547 728.909271,646.368692 C728.909271,644.711838 730.252416,643.368692 731.909271,643.368692 L748.909271,643.368692 C750.486207,643.368692 751.778968,644.58539 751.900011,646.131243 L855.966227,646.131308 L865.127,655.292 L884.789,635.631 L751.631241,635.631701 C751.154472,636.657475 750.114928,637.368692 748.909271,637.368692 L731.909271,637.368692 C730.252416,637.368692 728.909271,636.025547 728.909271,634.368692 C728.909271,632.711838 730.252416,631.368692 731.909271,631.368692 L748.909271,631.368692 C750.311752,631.368692 751.489456,632.331077 751.818019,633.631481 L886.789,633.631 L891.789,628.631 L886.789,623.631 L751.631241,623.631701 C751.154472,624.657475 750.114928,625.368692 748.909271,625.368692 L731.909271,625.368692 C730.252416,625.368692 728.909271,624.025547 728.909271,622.368692 C728.909271,620.711838 730.252416,619.368692 731.909271,619.368692 L748.909271,619.368692 C750.311752,619.368692 751.489456,620.331077 751.818019,621.631481 L884.789,621.631 L875.289,612.131 L751.336633,612.13198 C750.791235,612.88149 749.907149,613.368692 748.909271,613.368692 L731.909271,613.368692 C730.252416,613.368692 728.909271,612.025547 728.909271,610.368692 C728.909271,608.711838 730.252416,607.368692 731.909271,607.368692 L748.909271,607.368692 C750.124872,607.368692 751.171608,608.09169 751.642923,609.131129 L872.289,609.131 L862.289,599.131 L751.811312,599.131953 C751.47369,600.41914 750.30237,601.368692 748.909271,601.368692 L731.909271,601.368692 C730.252416,601.368692 728.909271,600.025547 728.909271,598.368692 C728.909271,596.711838 730.252416,595.368692 731.909271,595.368692 L748.909271,595.368692 C750.486207,595.368692 751.778968,596.58539 751.900011,598.131243 L862.703024,598.131308 L873.703,609.131 L911.289,609.131 L972.698,547.722 L972.698322,526.11605 C970.448502,525.86718 968.698646,523.959716 968.698646,521.64355 C968.698646,519.158269 970.713364,517.14355 973.198646,517.14355 Z M791.29136,1132.48246 C787.701509,1132.48246 784.79136,1135.39261 784.79136,1138.98246 C784.79136,1142.57231 787.701509,1145.48246 791.29136,1145.48246 C794.881211,1145.48246 797.79136,1142.57231 797.79136,1138.98246 C797.79136,1135.39261 794.881211,1132.48246 791.29136,1132.48246 Z M323,1091.59073 C321.067003,1091.59073 319.5,1093.15773 319.5,1095.09073 C319.5,1097.02373 321.067003,1098.59073 323,1098.59073 C324.932997,1098.59073 326.5,1097.02373 326.5,1095.09073 C326.5,1093.15773 324.932997,1091.59073 323,1091.59073 Z M576.114,896.72 L566.114,906.72 L566.114776,1011.00494 L554.234,1022.884 L554.235,1087.364 L565.247,1098.377 L576.114,1087.51 L576.114,896.72 Z M855.634617,1020.36186 C852.873193,1020.36186 850.634617,1022.60044 850.634617,1025.36186 C850.634617,1028.12329 852.873193,1030.36186 855.634617,1030.36186 C858.39604,1030.36186 860.634617,1028.12329 860.634617,1025.36186 C860.634617,1022.60044 858.39604,1020.36186 855.634617,1020.36186 Z M564.114,908.72 L554.234,918.6 L554.234,1020.056 L564.114,1010.176 L564.114,908.72 Z M1125.09073,966.5 C1123.15773,966.5 1121.59073,968.067003 1121.59073,970 C1121.59073,971.932997 1123.15773,973.5 1125.09073,973.5 C1127.02373,973.5 1128.59073,971.932997 1128.59073,970 C1128.59073,968.067003 1127.02373,966.5 1125.09073,966.5 Z M671.367,870.201 L671.368,934.946 L680.868,944.446 L680.868,879.702 L671.367,870.201 Z M604.133649,631.430927 L604.085175,631.510626 C603.010783,633.1794 601.246544,634.362012 599.195456,634.655465 L599.196098,715.972936 C600.471291,716.318601 601.409271,717.484108 601.409271,718.868692 L601.409271,735.868692 C601.409271,737.253277 600.471291,738.418784 599.196098,738.764449 L599.195231,762.68416 L598.902338,762.977053 L554.235,807.643 L554.234,917.185 L564.114,907.305 L564.114776,806.815107 L609.074,761.855 L609.074631,738.556203 C608.087527,738.065053 607.409271,737.04608 607.409271,735.868692 L607.409271,718.868692 C607.409271,717.691304 608.087527,716.672332 609.074631,716.181182 L609.074141,634.655496 C606.990457,634.357446 605.202792,633.141755 604.133649,631.430927 Z M616.073097,631.332225 L615.964094,631.510626 C614.889701,633.1794 613.125463,634.362012 611.074375,634.655465 L611.07443,715.942689 C612.411179,716.245285 613.409271,717.44043 613.409271,718.868692 L613.409271,735.868692 C613.409271,737.296954 612.411179,738.492099 611.07443,738.794695 L611.07415,762.68416 L610.781256,762.977053 L566.114,807.643 L566.114,905.305 L576.114,895.305 L576.114776,806.815107 L621.074,761.855 L621.073612,738.555696 C620.08706,738.064351 619.409271,737.045675 619.409271,735.868692 L619.409271,718.868692 C619.409271,717.69171 620.08706,716.673033 621.073612,716.181689 L621.074141,634.655496 C618.950605,634.351745 617.134519,633.094918 616.073097,631.332225 Z M680.868,846.703 L671.367,856.204 L671.367,868.788 L680.868,878.289 L680.868,846.703 Z M669.368,858.203 L665.075,862.496 L669.368,866.789 L669.368,858.203 Z M659.368,858.202 L659.368,866.788 L663.661,862.495 L659.368,858.202 Z M572.909271,703.368692 C574.215523,703.368692 575.326785,704.203542 575.738596,705.368781 L583.409271,705.368692 L583.409271,707.368692 L575.738596,707.368603 C575.326785,708.533842 574.215523,709.368692 572.909271,709.368692 L555.909271,709.368692 C554.603019,709.368692 553.491756,708.533842 553.079945,707.368603 L516.042,707.368 L378.77689,844.634617 L270.567247,844.634625 C270.082014,848.026915 267.164606,850.634617 263.638137,850.634617 C259.772144,850.634617 256.638137,847.50061 256.638137,843.634617 C256.638137,839.768623 259.772144,836.634617 263.638137,836.634617 C267.164531,836.634617 270.081889,839.242207 270.567216,842.634392 L377.948,842.634 L515.214387,705.368692 L553.079945,705.368781 C553.491756,704.203542 554.603019,703.368692 555.909271,703.368692 L572.909271,703.368692 Z M263.638137,838.634617 C260.876713,838.634617 258.638137,840.873193 258.638137,843.634617 C258.638137,846.39604 260.876713,848.634617 263.638137,848.634617 C266.399561,848.634617 268.638137,846.39604 268.638137,843.634617 C268.638137,840.873193 266.399561,838.634617 263.638137,838.634617 Z M572.909271,691.368692 C574.019396,691.368692 574.98869,691.971667 575.507507,692.867971 L580.680404,692.868692 L580.680404,695.868692 L575.507507,695.869414 C574.98869,696.765718 574.019396,697.368692 572.909271,697.368692 L555.909271,697.368692 C554.799145,697.368692 553.829852,696.765718 553.311035,695.869414 L457.125,695.868 L372.642076,780.35202 L372.202736,780.79136 L159.399786,780.791372 C158.680608,785.325344 154.753839,788.79136 150.01754,788.79136 C144.770835,788.79136 140.51754,784.538065 140.51754,779.29136 C140.51754,774.044655 144.770835,769.79136 150.01754,769.79136 C154.753839,769.79136 158.680608,773.257375 159.399786,777.791348 L370.959,777.791 L455.443423,693.308032 L455.882763,692.868692 L553.311035,692.867971 C553.829852,691.971667 554.799145,691.368692 555.909271,691.368692 L572.909271,691.368692 Z M150.01754,772.79136 C146.427689,772.79136 143.51754,775.701509 143.51754,779.29136 C143.51754,782.881211 146.427689,785.79136 150.01754,785.79136 C153.607391,785.79136 156.51754,782.881211 156.51754,779.29136 C156.51754,775.701509 153.607391,772.79136 150.01754,772.79136 Z M1312,773.632851 C1309.23858,773.632851 1307,775.871428 1307,778.632851 C1307,781.394275 1309.23858,783.632851 1312,783.632851 C1314.76142,783.632851 1317,781.394275 1317,778.632851 C1317,775.871428 1314.76142,773.632851 1312,773.632851 Z M790.632851,0 C794.498845,0 797.632851,3.13400675 797.632851,7 C797.632851,10.5264691 795.02515,13.4438768 791.63286,13.92911 L791.632851,138.741729 L741.166,189.208 L752.764143,200.807233 L752.764,264.116 L908.592957,108.286319 C906.537813,105.544525 906.75695,101.63805 909.250368,99.1446318 C911.984038,96.4109618 916.416193,96.4109618 919.149863,99.1446318 C921.883533,101.878302 921.883533,106.310457 919.149863,109.044127 C916.656445,111.537545 912.74997,111.756682 910.008175,109.701538 L752.764,266.944 L752.764,368.4 L763.632,357.532 L763.632835,278.866492 L763.779282,278.720046 L848.94361,193.555717 L849.090057,193.409271 L977.5275,193.408947 C977.77637,191.159127 979.683834,189.409271 982,189.409271 C984.485281,189.409271 986.5,191.423989 986.5,193.909271 C986.5,196.394552 984.485281,198.409271 982,198.409271 C979.683966,198.409271 977.776586,196.659613 977.527543,194.409978 L849.503,194.409 L764.632,279.281 L764.632,356.532 L804.355876,316.809204 L885.158808,316.80888 C885.407677,314.559061 887.315142,312.809204 889.631308,312.809204 C892.116589,312.809204 894.131308,314.823923 894.131308,317.309204 C894.131308,319.794485 892.116589,321.809204 889.631308,321.809204 C887.315274,321.809204 885.407894,320.059546 885.15885,317.809911 L804.769,317.809 L764.632,357.946 L764.632835,481.977787 L764.486389,482.124233 L719.673,526.937 L719.672904,540.147012 C720.698342,540.623914 721.409271,541.66328 721.409271,542.868692 L721.409271,559.868692 C721.409271,561.074105 720.698342,562.113471 719.672904,562.590372 L719.673785,602.936771 C721.923605,603.18564 723.673461,605.093105 723.673461,607.409271 C723.673461,609.894552 721.658743,611.909271 719.173461,611.909271 C716.68818,611.909271 714.673461,609.894552 714.673461,607.409271 C714.673461,605.093105 716.423318,603.18564 718.673137,602.936771 L718.673689,562.8572 C718.586564,562.864808 718.498371,562.868692 718.409271,562.868692 C716.752416,562.868692 715.409271,561.525547 715.409271,559.868692 L715.409271,542.868692 C715.409271,541.211838 716.752416,539.868692 718.409271,539.868692 C718.498371,539.868692 718.586564,539.872577 718.673689,539.880185 L718.673461,526.522947 L763.632,481.564 L763.632,358.946 L752.764,369.814 L752.764143,482.184893 L707.804,527.144 L707.805161,540.212542 C708.758964,540.714831 709.409271,541.715818 709.409271,542.868692 L709.409271,559.868692 C709.409271,561.021567 708.758964,562.022554 707.805161,562.524842 L707.804777,654.344504 C711.197067,654.829737 713.804769,657.747145 713.804769,661.273614 C713.804769,665.139607 710.670762,668.273614 706.804769,668.273614 C704.299635,668.273614 702.101859,666.957663 700.864999,664.979324 C699.628761,666.957663 697.430984,668.273614 694.92585,668.273614 C692.378985,668.273614 690.149803,666.913455 688.925072,664.879908 C687.701898,666.913455 685.472715,668.273614 682.92585,668.273614 C679.059857,668.273614 675.92585,665.139607 675.92585,661.273614 C675.92585,657.74722 678.533441,654.829861 681.925625,654.344535 L681.925434,562.829879 C680.498633,562.598534 679.409271,561.36083 679.409271,559.868692 L679.409271,542.868692 C679.409271,541.376555 680.498633,540.138851 681.925434,539.907505 L681.92585,526.31584 L682.218744,526.022947 L726.885,481.356 L726.885,395.693 L668.706,453.872 L670.984861,456.15053 L671.131308,456.296976 L671.131622,539.95623 C672.439548,540.279547 673.409271,541.460874 673.409271,542.868692 L673.409271,559.868692 C673.409271,561.27651 672.439548,562.457837 671.131622,562.781155 L671.131308,580.680404 L670.131308,580.680404 L670.131309,562.855986 C668.604764,562.715739 667.409271,561.431827 667.409271,559.868692 L667.409271,542.868692 C667.409271,541.305558 668.604764,540.021646 670.131309,539.881399 L670.131,456.711 L667.999,454.579 L659.131,463.447 L659.13061,539.95598 C660.439048,540.278938 661.409271,541.460511 661.409271,542.868692 L661.409271,559.868692 C661.409271,561.276873 660.439048,562.458447 659.13061,562.781404 L659.130911,579.529256 C659.806219,579.312358 660.526238,579.195231 661.273614,579.195231 C665.139607,579.195231 668.273614,582.329238 668.273614,586.195231 C668.273614,588.700365 666.957663,590.898141 664.979324,592.135001 C666.957663,593.371239 668.273614,595.569016 668.273614,598.07415 C668.273614,600.621015 666.913455,602.850197 664.879908,604.074928 C666.913455,605.298102 668.273614,607.527285 668.273614,610.07415 C668.273614,613.940143 665.139607,617.07415 661.273614,617.07415 C657.74722,617.07415 654.829861,614.466559 654.344535,611.074375 L575.825718,611.074726 C575.508226,612.390896 574.322937,613.368692 572.909271,613.368692 L555.909271,613.368692 C554.495605,613.368692 553.310315,612.390896 552.992824,611.074726 L526.31584,611.07415 L481.356,566.114 L395.693,566.114 L453.872,624.293 L456.15053,622.015139 L456.296976,621.868692 L552.950847,621.868113 C553.189125,620.449541 554.422975,619.368692 555.909271,619.368692 L572.909271,619.368692 C574.395566,619.368692 575.629416,620.449541 575.867694,621.868113 L580.680404,621.868692 L580.680404,622.868692 L575.867841,622.868398 C575.629923,624.287399 574.395872,625.368692 572.909271,625.368692 L555.909271,625.368692 C554.42267,625.368692 553.188618,624.287399 552.9507,622.868398 L456.711,622.868 L454.579,625 L463.447,633.868 L552.950847,633.868113 C553.189125,632.449541 554.422975,631.368692 555.909271,631.368692 L572.909271,631.368692 C574.395566,631.368692 575.629416,632.449541 575.867694,633.868113 L580.680404,633.868692 L580.680404,634.868692 L575.867841,634.868398 C575.629923,636.287399 574.395872,637.368692 572.909271,637.368692 L555.909271,637.368692 C554.42267,637.368692 553.188618,636.287399 552.9507,634.868398 L463.033773,634.868692 L453.872,625.707 L434.21,645.368 L553.079945,645.368781 C553.491756,644.203542 554.603019,643.368692 555.909271,643.368692 L572.909271,643.368692 C574.215523,643.368692 575.326785,644.203542 575.738596,645.368781 L580.680404,645.368692 L580.680404,647.368692 L575.738596,647.368603 C575.326785,648.533842 574.215523,649.368692 572.909271,649.368692 L555.909271,649.368692 C554.603019,649.368692 553.491756,648.533842 553.079945,647.368603 L432.21,647.368 L427.21,652.368 L432.21,657.368 L553.079945,657.368781 C553.491756,656.203542 554.603019,655.368692 555.909271,655.368692 L572.909271,655.368692 C574.215523,655.368692 575.326785,656.203542 575.738596,657.368781 L580.680404,657.368692 L580.680404,659.368692 L575.738596,659.368603 C575.326785,660.533842 574.215523,661.368692 572.909271,661.368692 L555.909271,661.368692 C554.603019,661.368692 553.491756,660.533842 553.079945,659.368603 L434.21,659.368 L443.71,668.868 L553.311035,668.867971 C553.829852,667.971667 554.799145,667.368692 555.909271,667.368692 L572.909271,667.368692 C574.019396,667.368692 574.98869,667.971667 575.507507,668.867971 L580.680404,668.868692 L580.680404,671.868692 L575.507507,671.869414 C574.98869,672.765718 574.019396,673.368692 572.909271,673.368692 L555.909271,673.368692 C554.799145,673.368692 553.829852,672.765718 553.311035,671.869414 L446.709,671.868 L456.71,681.868 L552.950847,681.868113 C553.189125,680.449541 554.422975,679.368692 555.909271,679.368692 L572.909271,679.368692 C574.395566,679.368692 575.629416,680.449541 575.867694,681.868113 L580.680404,681.868692 L580.680404,682.868692 L575.867841,682.868398 C575.629923,684.287399 574.395872,685.368692 572.909271,685.368692 L555.909271,685.368692 C554.42267,685.368692 553.188618,684.287399 552.9507,682.868398 L456.296976,682.868692 L445.296,671.868 L407.71,671.868 L346.301,733.277 L346.301678,754.88395 C348.551498,755.13282 350.301354,757.040284 350.301354,759.35645 C350.301354,761.841731 348.286636,763.85645 345.801354,763.85645 C343.316073,763.85645 341.301354,761.841731 341.301354,759.35645 C341.301354,757.040284 343.051211,755.13282 345.30103,754.88395 L345.301354,732.864314 L345.447801,732.717868 L406.296,671.868 L341.553,671.868 L262.108002,751.314087 C264.163845,754.055925 263.944925,757.962964 261.451243,760.456646 C258.717573,763.190316 254.285418,763.190316 251.551748,760.456646 C248.818078,757.722976 248.818078,753.290821 251.551748,750.557151 C254.045472,748.063427 257.9526,747.844542 260.694446,749.900496 L338.725,671.868 L88.4733524,671.868704 C87.7541738,676.402677 83.8274056,679.868692 79.091106,679.868692 C73.8444009,679.868692 69.591106,675.615397 69.591106,670.368692 C69.591106,665.121987 73.8444009,660.868692 79.091106,660.868692 C83.8272816,660.868692 87.7539682,664.334526 88.4732959,668.868324 L341.725,668.868 L353.225488,657.368692 L420.796,657.368 L425.796,652.368 L420.796,647.368 L278.585048,647.368692 C278.099815,650.760991 275.182407,653.368692 271.655938,653.368692 C267.789945,653.368692 264.655938,650.234686 264.655938,646.368692 C264.655938,642.502699 267.789945,639.368692 271.655938,639.368692 C275.182332,639.368692 278.09969,641.976283 278.585017,645.368467 L418.796,645.368 L363.296,589.868 L311.576334,589.869016 C311.327464,592.118836 309.419999,593.868692 307.103834,593.868692 C304.618552,593.868692 302.603834,591.853974 302.603834,589.368692 C302.603834,586.883411 304.618552,584.868692 307.103834,584.868692 C309.419999,584.868692 311.327464,586.618549 311.576334,588.868368 L363.71119,588.868692 L363.857636,589.015139 L420.209,645.368 L432.797,645.368 L453.165,625 L394.279,566.114 L200.660929,566.114776 L200.368036,565.821883 L189.208,554.661 L152.695118,591.175881 C154.750961,593.917719 154.532041,597.824758 152.038359,600.31844 C149.304689,603.05211 144.872534,603.05211 142.138864,600.31844 C139.405194,597.58477 139.405194,593.152615 142.138864,590.418945 C144.632282,587.925527 148.538757,587.70639 151.280552,589.761533 L187.794,553.247 L137.913,503.367 L13.9290789,503.367374 C13.4437524,506.759558 10.5263939,509.367149 7,509.367149 C3.13400675,509.367149 -3.63797881e-12,506.233142 -3.63797881e-12,502.367149 C-3.63797881e-12,498.501155 3.13400675,495.367149 7,495.367149 C10.5264691,495.367149 13.4438768,497.97485 13.92911,501.367149 L138.741729,501.367149 L189.208,551.833 L200.807233,540.235857 L264.116,540.235 L108.286319,384.407043 C105.544525,386.462187 101.63805,386.24305 99.1446318,383.749632 C96.4109618,381.015962 96.4109618,376.583807 99.1446318,373.850137 C101.878302,371.116467 106.310457,371.116467 109.044127,373.850137 C111.537545,376.343555 111.756682,380.25003 109.701538,382.991825 L266.944,540.235 L368.4,540.235 L357.532,529.367 L278.866492,529.367165 L278.720046,529.220718 L193.555717,444.05639 L193.409271,443.909943 L193.408947,315.4725 C191.159127,315.22363 189.409271,313.316166 189.409271,311 C189.409271,308.514719 191.423989,306.5 193.909271,306.5 C196.394552,306.5 198.409271,308.514719 198.409271,311 C198.409271,313.316034 196.659613,315.223414 194.409978,315.472457 L194.409,443.496 L279.281,528.367 L356.532,528.367 L316.809204,488.644124 L316.80888,407.841192 C314.559061,407.592323 312.809204,405.684858 312.809204,403.368692 C312.809204,400.883411 314.823923,398.868692 317.309204,398.868692 C319.794485,398.868692 321.809204,400.883411 321.809204,403.368692 C321.809204,405.684726 320.059546,407.592106 317.809911,407.84115 L317.809,488.23 L357.946,528.367 L481.977787,528.367165 L482.124233,528.513611 L526.937,573.326 L552.91,573.326 L552.914363,573.19242 C553.00561,571.617612 554.31159,570.368692 555.909271,570.368692 L572.909271,570.368692 C574.552004,570.368692 575.886353,571.689041 575.908979,573.326399 L585.631,573.326 L585.630025,562.766493 C584.35097,562.4234 583.409271,561.256019 583.409271,559.868692 L583.409271,542.868692 C583.409271,541.481366 584.35097,540.313984 585.630025,539.970891 L585.631,516.042 L448.365383,378.77689 L448.365383,270.567247 C444.973085,270.082014 442.365383,267.164606 442.365383,263.638137 C442.365383,259.772144 445.49939,256.638137 449.365383,256.638137 C453.231377,256.638137 456.365383,259.772144 456.365383,263.638137 C456.365383,267.164531 453.757793,270.081889 450.365608,270.567216 L450.365,377.948 L587.631308,515.214387 L587.631733,540.128243 C588.679264,540.596236 589.409271,541.647213 589.409271,542.868692 L589.409271,559.868692 C589.409271,561.090564 588.678796,562.141823 587.630725,562.609592 L587.631,573.326 L597.131,573.326 L597.130389,562.583229 C596.113158,562.103148 595.409271,561.068121 595.409271,559.868692 L595.409271,542.868692 C595.409271,541.669264 596.113158,540.634237 597.130389,540.154156 L597.131,457.125 L512.64798,372.642076 L512.20864,372.202736 L512.208628,159.399786 C507.674656,158.680608 504.20864,154.753839 504.20864,150.01754 C504.20864,144.770835 508.461935,140.51754 513.70864,140.51754 C518.955345,140.51754 523.20864,144.770835 523.20864,150.01754 C523.20864,154.753839 519.742625,158.680608 515.208652,159.399786 L515.208,370.959 L599.691968,455.443423 L600.131308,455.882763 L600.13075,540.41145 C600.9039,540.954101 601.409271,541.852379 601.409271,542.868692 L601.409271,559.868692 C601.409271,560.885006 600.9039,561.783283 600.13075,562.325935 L600.131,573.326 L602.936771,573.326215 C603.18564,571.076395 605.093105,569.326539 607.409271,569.326539 C608.432781,569.326539 609.376483,569.668241 610.132521,570.243791 L610.132311,562.856078 C608.605288,562.716301 607.409271,561.432169 607.409271,559.868692 L607.409271,542.868692 C607.409271,541.305216 608.605288,540.021084 610.132311,539.881307 L610.131308,456.296976 L621.131,445.296 L621.131,407.71 L559.722,346.301 L538.11605,346.301678 C537.86718,348.551498 535.959716,350.301354 533.64355,350.301354 C531.158269,350.301354 529.14355,348.286636 529.14355,345.801354 C529.14355,343.316073 531.158269,341.301354 533.64355,341.301354 C535.959716,341.301354 537.86718,343.051211 538.11605,345.30103 L560.135686,345.301354 L560.282132,345.447801 L621.131,406.296 L621.131,341.553 L541.685913,262.108002 C538.944075,264.163845 535.037036,263.944925 532.543354,261.451243 C529.809684,258.717573 529.809684,254.285418 532.543354,251.551748 C535.277024,248.818078 539.709179,248.818078 542.442849,251.551748 C544.936573,254.045472 545.155458,257.9526 543.099504,260.694446 L621.131,338.725 L621.131296,88.4733524 C616.597323,87.7541738 613.131308,83.8274056 613.131308,79.091106 C613.131308,73.8444009 617.384603,69.591106 622.631308,69.591106 C627.878013,69.591106 632.131308,73.8444009 632.131308,79.091106 C632.131308,83.8272816 628.665474,87.7539682 624.131676,88.4732959 L624.131,341.725 L635.631308,353.225488 L635.631,420.796 L640.631,425.796 L645.631,420.796 L645.631308,278.585048 C642.239009,278.099815 639.631308,275.182407 639.631308,271.655938 C639.631308,267.789945 642.765314,264.655938 646.631308,264.655938 C650.497301,264.655938 653.631308,267.789945 653.631308,271.655938 C653.631308,275.182332 651.023717,278.09969 647.631533,278.585017 L647.631,418.796 L703.131,363.296 L703.130984,311.576334 C700.881164,311.327464 699.131308,309.419999 699.131308,307.103834 C699.131308,304.618552 701.146026,302.603834 703.631308,302.603834 C706.116589,302.603834 708.131308,304.618552 708.131308,307.103834 C708.131308,309.419999 706.381451,311.327464 704.131632,311.576334 L704.131308,363.71119 L703.984861,363.857636 L647.631,420.209 L647.631,432.797 L667.999,453.165 L726.885,394.279 L726.885224,200.660929 L727.178117,200.368036 L738.337,189.208 L701.824119,152.695118 C699.082281,154.750961 695.175242,154.532041 692.68156,152.038359 C689.94789,149.304689 689.94789,144.872534 692.68156,142.138864 C695.41523,139.405194 699.847385,139.405194 702.581055,142.138864 C705.074473,144.632282 705.29361,148.538757 703.238467,151.280552 L739.752,187.794 L789.632,137.913 L789.632626,13.9290789 C786.240442,13.4437524 783.632851,10.5263939 783.632851,7 C783.632851,3.13400675 786.766858,0 790.632851,0 Z M729.344953,683.926541 L664.655496,683.92585 C664.357446,686.00954 663.141755,687.797207 661.430927,688.86635 C663.141858,689.933613 664.357381,691.721091 664.655465,693.804544 L728.962328,693.804039 C729.226472,692.417123 730.445434,691.368692 731.909271,691.368692 L748.909271,691.368692 C750.373107,691.368692 751.592069,692.417123 751.856213,693.804039 L792.68416,693.804769 L792.977053,694.097662 L837.643,738.764 L947.184,738.764 L937.305,728.885 L836.815107,728.885224 L791.855,683.925 L751.473589,683.926541 C750.947147,684.791245 749.995644,685.368692 748.909271,685.368692 L731.909271,685.368692 C730.822898,685.368692 729.871395,684.791245 729.344953,683.926541 Z M1117.51,716.885 L926.72,716.885 L936.72,726.885 L1041.00494,726.885224 L1052.883,738.764 L1117.364,738.764 L1128.377,727.751 L1117.51,716.885 Z M1040.176,728.885 L938.72,728.885 L948.599,738.764 L1050.054,738.764 L1040.176,728.885 Z M791.855,671.925 L751.474194,671.925546 C750.947877,672.790802 749.99606,673.368692 748.909271,673.368692 L731.909271,673.368692 C730.822481,673.368692 729.870665,672.790802 729.344347,671.925546 L664.655496,671.92585 C664.351745,674.049392 663.094918,675.865479 661.332225,676.926903 C663.095265,677.986773 664.351709,679.802527 664.655465,681.925625 L728.941839,681.925101 C729.156229,680.47859 730.403134,679.368692 731.909271,679.368692 L748.909271,679.368692 C750.415407,679.368692 751.662313,680.47859 751.876702,681.925101 L792.68416,681.92585 L792.977053,682.218744 L837.643,726.885 L935.305,726.885 L925.305,716.885 L836.815107,716.885224 L791.855,671.925 Z M711.590729,703.673461 C709.657733,703.673461 708.090729,705.240465 708.090729,707.173461 C708.090729,709.106458 709.657733,710.673461 711.590729,710.673461 C713.523726,710.673461 715.090729,709.106458 715.090729,707.173461 C715.090729,705.240465 713.523726,703.673461 711.590729,703.673461 Z M658.564182,689.874652 L658.454971,689.888391 C658.215487,689.913157 657.972419,689.92585 657.726386,689.92585 C657.443114,689.92585 657.163772,689.909024 656.889305,689.876317 C654.526567,690.272602 652.726386,692.328458 652.726386,694.804769 C652.726386,697.566193 654.964962,699.804769 657.726386,699.804769 C660.48781,699.804769 662.726386,697.566193 662.726386,694.804769 C662.726386,692.328831 660.926747,690.273221 658.564182,689.874652 Z M657.726386,677.92585 C654.964962,677.92585 652.726386,680.164427 652.726386,682.92585 C652.726386,685.401118 654.52505,687.456285 656.886671,687.855643 C657.161735,687.821718 657.442081,687.804769 657.726386,687.804769 C658.010502,687.804769 658.290664,687.821695 658.565919,687.854595 C660.92725,687.456824 662.726386,685.401443 662.726386,682.92585 C662.726386,680.164427 660.48781,677.92585 657.726386,677.92585 Z M585.826539,678.090729 C583.893542,678.090729 582.326539,679.657733 582.326539,681.590729 C582.326539,683.523726 583.893542,685.090729 585.826539,685.090729 C587.759535,685.090729 589.326539,683.523726 589.326539,681.590729 C589.326539,679.657733 587.759535,678.090729 585.826539,678.090729 Z M657.726386,665.92585 C654.964962,665.92585 652.726386,668.164427 652.726386,670.92585 C652.726386,673.687274 654.964962,675.92585 657.726386,675.92585 C660.48781,675.92585 662.726386,673.687274 662.726386,670.92585 C662.726386,668.164427 660.48781,665.92585 657.726386,665.92585 Z M418.796,659.368 L354.053,659.368 L344.553,668.868 L409.296,668.868 L418.796,659.368 Z M432.796,659.368 L420.21,659.368 L410.71,668.868 L442.296,668.868 L432.796,659.368 Z M694.92585,656.273614 C692.164427,656.273614 689.92585,658.51219 689.92585,661.273614 C689.92585,664.035038 692.164427,666.273614 694.92585,666.273614 C697.401118,666.273614 699.456285,664.47495 699.855643,662.113329 C699.821718,661.838265 699.804769,661.557919 699.804769,661.273614 C699.804769,660.989498 699.821695,660.709336 699.854595,660.434081 C699.456824,658.07275 697.401443,656.273614 694.92585,656.273614 Z M682.92585,656.273614 C680.164427,656.273614 677.92585,658.51219 677.92585,661.273614 C677.92585,664.035038 680.164427,666.273614 682.92585,666.273614 C685.687274,666.273614 687.92585,664.035038 687.92585,661.273614 C687.92585,658.51219 685.687274,656.273614 682.92585,656.273614 Z M706.804769,656.273614 C704.328831,656.273614 702.273221,658.073253 701.874652,660.435818 C701.908964,660.710001 701.92585,660.989836 701.92585,661.273614 C701.92585,661.556886 701.909024,661.836228 701.876317,662.110695 C702.272602,664.473433 704.328458,666.273614 706.804769,666.273614 C709.566193,666.273614 711.804769,664.035038 711.804769,661.273614 C711.804769,658.51219 709.566193,656.273614 706.804769,656.273614 Z M738.885,383.693 L728.885,393.693 L728.885224,482.184893 L683.925,527.144 L683.925105,540.279263 C684.813067,540.800193 685.409271,541.764817 685.409271,542.868692 L685.409271,559.868692 C685.409271,560.972567 684.813067,561.937192 683.925105,562.458122 L683.92585,654.344504 C686.049392,654.648255 687.865479,655.905082 688.926903,657.667775 C689.986773,655.904735 691.802527,654.648291 693.925625,654.344535 L693.925434,562.829879 C692.498633,562.598534 691.409271,561.36083 691.409271,559.868692 L691.409271,542.868692 C691.409271,541.376555 692.498633,540.138851 693.925434,539.907505 L693.92585,526.31584 L738.885,481.356 L738.885,383.693 Z M750.764,371.814 L740.885,381.693 L740.885224,482.184893 L695.925,527.144 L695.925105,540.279263 C696.813067,540.800193 697.409271,541.764817 697.409271,542.868692 L697.409271,559.868692 C697.409271,560.972567 696.813067,561.937192 695.925105,562.458122 L695.92585,654.344504 C698.00954,654.642554 699.797207,655.858245 700.86635,657.569073 C701.933613,655.858142 703.721091,654.642619 705.804544,654.344535 L705.804165,562.80764 C704.437365,562.527709 703.409271,561.318263 703.409271,559.868692 L703.409271,542.868692 C703.409271,541.419122 704.437365,540.209676 705.804165,539.929744 L705.804769,526.31584 L750.764,481.356 L750.764,371.814 Z M426.503,653.075 L422.21,657.368 L430.796,657.368 L426.503,653.075 Z M430.797,647.368 L422.209,647.368 L426.503,651.662 L430.797,647.368 Z M892.496,629.338 L888.203,633.631 L896.789,633.631 L892.496,629.338 Z M622.07415,622.726386 C619.312726,622.726386 617.07415,624.964962 617.07415,627.726386 C617.07415,630.48781 619.312726,632.726386 622.07415,632.726386 C624.835573,632.726386 627.07415,630.48781 627.07415,627.726386 C627.07415,624.964962 624.835573,622.726386 622.07415,622.726386 Z M598.195231,622.726386 C595.433807,622.726386 593.195231,624.964962 593.195231,627.726386 C593.195231,630.48781 595.433807,632.726386 598.195231,632.726386 C600.671169,632.726386 602.726779,630.926747 603.125348,628.564182 C603.091036,628.289999 603.07415,628.010164 603.07415,627.726386 C603.07415,627.443114 603.090976,627.163772 603.123683,626.889305 C602.727398,624.526567 600.671542,622.726386 598.195231,622.726386 Z M610.07415,622.726386 C607.598882,622.726386 605.543715,624.52505 605.144357,626.886671 C605.178282,627.161735 605.195231,627.442081 605.195231,627.726386 C605.195231,628.010502 605.178305,628.290664 605.145405,628.565919 C605.543176,630.92725 607.598557,632.726386 610.07415,632.726386 C612.835573,632.726386 615.07415,630.48781 615.07415,627.726386 C615.07415,624.964962 612.835573,622.726386 610.07415,622.726386 Z M896.789,623.631 L888.203,623.631 L892.496,627.924 L896.789,623.631 Z M908.289,612.131 L876.703,612.131 L886.203,621.631 L898.789,621.631 L908.289,612.131 Z M974.445,612.131 L909.703,612.131 L900.203,621.631 L964.946,621.631 L974.445,612.131 Z M661.273614,605.07415 C658.51219,605.07415 656.273614,607.312726 656.273614,610.07415 C656.273614,612.835573 658.51219,615.07415 661.273614,615.07415 C664.035038,615.07415 666.273614,612.835573 666.273614,610.07415 C666.273614,607.312726 664.035038,605.07415 661.273614,605.07415 Z M719.173461,603.909271 C717.240465,603.909271 715.673461,605.476274 715.673461,607.409271 C715.673461,609.342267 717.240465,610.909271 719.173461,610.909271 C721.106458,610.909271 722.673461,609.342267 722.673461,607.409271 C722.673461,605.476274 721.106458,603.909271 719.173461,603.909271 Z M481.356,554.114 L383.693,554.114 L393.693,564.114 L482.184893,564.114776 L527.144,609.074 L553.20218,609.074152 C553.685458,608.065363 554.716006,607.368692 555.909271,607.368692 L572.909271,607.368692 C574.102535,607.368692 575.133083,608.065363 575.616361,609.074152 L654.344504,609.074141 C654.648255,606.950605 655.905082,605.134519 657.667775,604.073097 C655.904735,603.013227 654.648291,601.197473 654.344535,599.074375 L575.825718,599.074726 C575.508226,600.390896 574.322937,601.368692 572.909271,601.368692 L555.909271,601.368692 C554.495605,601.368692 553.310315,600.390896 552.992824,599.074726 L526.31584,599.07415 L481.356,554.114 Z M662.113329,593.144357 L661.989323,593.159091 C661.754004,593.182989 661.515238,593.195231 661.273614,593.195231 C660.989498,593.195231 660.709336,593.178305 660.434081,593.145405 C658.07275,593.543176 656.273614,595.598557 656.273614,598.07415 C656.273614,600.835573 658.51219,603.07415 661.273614,603.07415 C664.035038,603.07415 666.273614,600.835573 666.273614,598.07415 C666.273614,595.598882 664.47495,593.543715 662.113329,593.144357 Z M481.356,542.235 L371.813,542.234 L381.693,552.114 L482.184893,552.114776 L527.144,597.074 L553.20218,597.074152 C553.685458,596.065363 554.716006,595.368692 555.909271,595.368692 L572.909271,595.368692 C574.102535,595.368692 575.133083,596.065363 575.616361,597.074152 L654.344504,597.074141 C654.642554,594.990457 655.858245,593.202792 657.569073,592.133649 C655.858142,591.066387 654.642619,589.278909 654.344535,587.195456 L575.793838,587.195682 C575.434798,588.450359 574.279278,589.368692 572.909271,589.368692 L555.909271,589.368692 C554.539263,589.368692 553.383744,588.450359 553.024703,587.195682 L526.31584,587.195231 L526.022947,586.902338 L481.356,542.235 Z M661.273614,581.195231 C658.51219,581.195231 656.273614,583.433807 656.273614,586.195231 C656.273614,588.671169 658.073253,590.726779 660.435818,591.125348 C660.710001,591.091036 660.989836,591.07415 661.273614,591.07415 C661.556886,591.07415 661.836228,591.090976 662.110695,591.123683 C664.473433,590.727398 666.273614,588.671542 666.273614,586.195231 C666.273614,583.433807 664.035038,581.195231 661.273614,581.195231 Z M1168.98246,492.20864 C1174.22917,492.20864 1178.48246,496.461935 1178.48246,501.70864 C1178.48246,506.955345 1174.22917,511.20864 1168.98246,511.20864 C1164.24616,511.20864 1160.31939,507.742625 1159.60021,503.208652 L948.04,503.208 L863.556577,587.691968 L863.117237,588.131308 L751.336633,588.13198 C750.791235,588.88149 749.907149,589.368692 748.909271,589.368692 L731.909271,589.368692 C730.252416,589.368692 728.909271,588.025547 728.909271,586.368692 C728.909271,584.711838 730.252416,583.368692 731.909271,583.368692 L748.909271,583.368692 C750.124872,583.368692 751.171608,584.09169 751.642923,585.131129 L861.874,585.131 L946.357924,500.64798 L946.797264,500.20864 L1159.60021,500.208628 C1160.31939,495.674656 1164.24616,492.20864 1168.98246,492.20864 Z M640.63,427.21 L635.631,432.209 L635.631733,540.128243 C636.679264,540.596236 637.409271,541.647213 637.409271,542.868692 L637.409271,559.868692 C637.409271,561.090172 636.679264,562.141149 635.631733,562.609142 L635.631308,580.680404 L633.631308,580.680404 L633.631023,562.766761 C632.351459,562.424008 631.409271,561.25638 631.409271,559.868692 L631.409271,542.868692 C631.409271,541.481005 632.351459,540.313377 633.631023,539.970624 L633.631,434.209 L624.131,443.709 L624.131736,540.412142 C624.90433,540.954865 625.409271,541.852811 625.409271,542.868692 L625.409271,559.868692 C625.409271,560.884574 624.90433,561.78252 624.131736,562.325243 L624.131308,580.680404 L621.131308,580.680404 L621.13138,562.583696 C620.113615,562.10382 619.409271,561.06851 619.409271,559.868692 L619.409271,542.868692 C619.409271,541.668874 620.113615,540.633565 621.13138,540.153689 L621.131,446.709 L611.131,456.71 L611.131622,539.95623 C612.439548,540.279547 613.409271,541.460874 613.409271,542.868692 L613.409271,559.868692 C613.409271,561.276147 612.440048,562.457228 611.132634,562.780904 L611.13213,571.297846 C611.622597,572.018534 611.909271,572.889058 611.909271,573.826539 C611.909271,574.764019 611.622597,575.634543 611.13213,576.355231 L611.131308,580.680404 L610.131308,580.680404 L610.132521,577.409287 C609.376483,577.984836 608.432781,578.326539 607.409271,578.326539 C605.093105,578.326539 603.18564,576.576682 602.936771,574.326863 L600.131,574.326 L600.131308,580.680404 L597.131308,580.680404 L597.131,574.326 L587.631,574.326 L587.631308,583.409271 L585.631308,583.409271 L585.631,574.326 L575.909,574.326 L575.909271,574.368692 C575.909271,576.025547 574.566125,577.368692 572.909271,577.368692 L555.909271,577.368692 C554.252416,577.368692 552.909271,576.025547 552.909271,574.368692 L552.909,574.326 L526.522947,574.326539 L526.3765,574.180092 L481.564,529.367 L358.946,529.367 L369.814,540.235 L482.184893,540.235857 L527.144,585.195 L553.147617,585.194848 C553.604486,584.121355 554.668981,583.368692 555.909271,583.368692 L572.909271,583.368692 C574.14956,583.368692 575.214056,584.121355 575.670924,585.194848 L654.344504,585.195223 C654.674262,582.889868 656.12729,580.946866 658.131389,579.938417 L658.131309,562.855986 C656.604764,562.715739 655.409271,561.431827 655.409271,559.868692 L655.409271,542.868692 C655.409271,541.305558 656.604764,540.021646 658.131309,539.881399 L658.131308,463.033773 L667.292,453.872 L647.631,434.211 L647.631733,540.128243 C648.679264,540.596236 649.409271,541.647213 649.409271,542.868692 L649.409271,559.868692 C649.409271,561.090172 648.679264,562.141149 647.631733,562.609142 L647.631308,580.680404 L645.631308,580.680404 L645.631023,562.766761 C644.351459,562.424008 643.409271,561.25638 643.409271,559.868692 L643.409271,542.868692 C643.409271,541.481005 644.351459,540.313377 645.631023,539.970624 L645.631,432.211 L640.63,427.21 Z M1055.36186,430.365383 C1059.22786,430.365383 1062.36186,433.49939 1062.36186,437.365383 C1062.36186,441.231377 1059.22786,444.365383 1055.36186,444.365383 C1051.83547,444.365383 1048.91811,441.757793 1048.43278,438.365608 L941.051,438.365 L803.785613,575.631308 L751.631241,575.631701 C751.154472,576.657475 750.114928,577.368692 748.909271,577.368692 L731.909271,577.368692 C730.252416,577.368692 728.909271,576.025547 728.909271,574.368692 C728.909271,572.711838 730.252416,571.368692 731.909271,571.368692 L748.909271,571.368692 C750.311752,571.368692 751.489456,572.331077 751.818019,573.631481 L802.957,573.631 L940.22311,436.365383 L1048.43275,436.365383 C1048.91799,432.973085 1051.83539,430.365383 1055.36186,430.365383 Z M607.409271,570.326539 C605.476274,570.326539 603.909271,571.893542 603.909271,573.826539 C603.909271,575.759535 605.476274,577.326539 607.409271,577.326539 C608.508719,577.326539 609.489765,576.819598 610.131416,576.026708 L610.131416,571.626369 C609.489765,570.83348 608.508719,570.326539 607.409271,570.326539 Z M266.115,542.234 L201.635,542.235 L190.622,553.247 L201.489,564.114 L392.279,564.114 L382.279,554.114 L277.995057,554.114776 L266.115,542.234 Z M370.399,542.234 L268.943,542.234 L278.823,552.114 L380.279,552.114 L370.399,542.234 Z M1168.98246,495.20864 C1165.39261,495.20864 1162.48246,498.118789 1162.48246,501.70864 C1162.48246,505.298491 1165.39261,508.20864 1168.98246,508.20864 C1172.57231,508.20864 1175.48246,505.298491 1175.48246,501.70864 C1175.48246,498.118789 1172.57231,495.20864 1168.98246,495.20864 Z M7,497.367149 C4.23857625,497.367149 2,499.605725 2,502.367149 C2,505.128572 4.23857625,507.367149 7,507.367149 C9.76142375,507.367149 12,505.128572 12,502.367149 C12,499.605725 9.76142375,497.367149 7,497.367149 Z M1055.36186,432.365383 C1052.60044,432.365383 1050.36186,434.60396 1050.36186,437.365383 C1050.36186,440.126807 1052.60044,442.365383 1055.36186,442.365383 C1058.12329,442.365383 1060.36186,440.126807 1060.36186,437.365383 C1060.36186,434.60396 1058.12329,432.365383 1055.36186,432.365383 Z M624.131,410.71 L624.131,442.296 L633.631,432.796 L633.631,420.21 L624.131,410.71 Z M645.631,422.209 L641.337,426.503 L645.631,430.797 L645.631,422.209 Z M635.631,422.21 L635.631,430.796 L639.924,426.503 L635.631,422.21 Z M624.131,344.553 L624.131,409.296 L633.631,418.796 L633.631,354.053 L624.131,344.553 Z M739.751,190.622 L728.885,201.489 L728.885,392.279 L738.885,382.279 L738.885224,277.995057 L750.764,266.116 L750.764,201.635 L739.751,190.622 Z M750.764,268.944 L740.885,278.823 L740.885,380.279 L750.764,370.4 L750.764,268.944 Z M193.909271,307.5 C191.976274,307.5 190.409271,309.067003 190.409271,311 C190.409271,312.932997 191.976274,314.5 193.909271,314.5 C195.842267,314.5 197.409271,312.932997 197.409271,311 C197.409271,309.067003 195.842267,307.5 193.909271,307.5 Z M449.365383,258.638137 C446.60396,258.638137 444.365383,260.876713 444.365383,263.638137 C444.365383,266.399561 446.60396,268.638137 449.365383,268.638137 C452.126807,268.638137 454.365383,266.399561 454.365383,263.638137 C454.365383,260.876713 452.126807,258.638137 449.365383,258.638137 Z M982,190.409271 C980.067003,190.409271 978.5,191.976274 978.5,193.909271 C978.5,195.842267 980.067003,197.409271 982,197.409271 C983.932997,197.409271 985.5,195.842267 985.5,193.909271 C985.5,191.976274 983.932997,190.409271 982,190.409271 Z M513.70864,143.51754 C510.118789,143.51754 507.20864,146.427689 507.20864,150.01754 C507.20864,153.607391 510.118789,156.51754 513.70864,156.51754 C517.298491,156.51754 520.20864,153.607391 520.20864,150.01754 C520.20864,146.427689 517.298491,143.51754 513.70864,143.51754 Z M790.632851,2 C787.871428,2 785.632851,4.23857625 785.632851,7 C785.632851,9.76142375 787.871428,12 790.632851,12 C793.394275,12 795.632851,9.76142375 795.632851,7 C795.632851,4.23857625 793.394275,2 790.632851,2 Z" id="Combined-Shape" fill="#FF9425" fill-rule="nonzero"></path>
            <g id="cpu">
                <use fill="black" fill-opacity="1" filter="url(#filter-2)" xlink:href="#path-1"></use>
                <use fill="#212733" fill-rule="evenodd" xlink:href="#path-1"></use>
            </g>
        </g>
    </g>
</svg>